<?xml version="1.0" standalone="no"?>
<!DOCTYPE svg PUBLIC "-//W3C//DTD SVG 20010904//EN"
 "http://www.w3.org/TR/2001/REC-SVG-20010904/DTD/svg10.dtd">
<svg version="1.0" xmlns="http://www.w3.org/2000/svg"
 width="374.000000pt" height="374.000000pt" viewBox="0 0 374.000000 374.000000"
 preserveAspectRatio="xMidYMid meet">
<metadata>
Created by potrace 1.14, written by Peter Selinger 2001-2017
</metadata>
<g transform="translate(0.000000,374.000000) scale(0.100000,-0.100000)"
fill="#000000" stroke="none">
<path d="M1764 3527 c-27 -13 -67 -44 -87 -68 -110 -128 -61 -329 95 -396 26
-12 27 -14 25 -90 l-2 -77 -40 -3 c-50 -4 -189 -21 -235 -29 -59 -9 -253 -62
-311 -83 -217 -83 -376 -278 -404 -497 -8 -69 -9 -593 0 -644 9 -55 55 -138
102 -184 23 -23 72 -56 108 -75 l67 -33 -24 -26 c-12 -15 -26 -29 -29 -32 -47
-38 -189 -282 -189 -323 0 -8 -3 -17 -8 -21 -4 -4 -7 -11 -8 -14 0 -4 -6 -34
-14 -67 -16 -75 -15 -114 5 -161 32 -76 111 -123 207 -124 45 0 70 7 123 35
37 19 83 49 103 66 33 30 36 30 49 13 7 -10 13 -21 13 -25 0 -5 14 -30 32 -56
155 -235 365 -341 613 -309 178 23 351 147 457 329 23 39 43 74 44 76 2 2 22
-12 46 -31 24 -20 66 -48 93 -64 44 -25 60 -29 130 -29 70 0 85 3 121 27 85
55 110 123 88 236 -31 163 -110 318 -228 449 l-46 51 67 34 c120 60 193 154
210 270 10 66 9 551 -1 633 -27 217 -175 404 -388 489 -58 23 -216 69 -281 82
-87 17 -241 37 -290 37 -32 1 -37 14 -34 100 2 57 2 57 44 78 88 43 136 125
136 229 0 96 -42 167 -128 220 -58 36 -164 39 -231 7z"/>
<path d="M699 2325 c-3 -2 -18 -7 -34 -10 -17 -3 -37 -8 -45 -10 -8 -2 -20 -4
-26 -4 -15 -1 -49 -32 -62 -58 -17 -31 -18 -370 -1 -405 16 -37 47 -55 119
-72 98 -23 95 -31 93 274 -1 140 -2 258 -2 262 -1 9 -37 29 -42 23z"/>
<path d="M3012 2317 c-12 -14 -14 -61 -13 -339 1 -243 -3 -234 104 -210 58 13
72 21 95 49 25 34 26 38 27 201 0 92 -3 182 -8 201 -15 59 -55 86 -140 97 -22
2 -43 7 -47 9 -4 3 -12 -1 -18 -8z"/>
</g>
</svg>
